<svg xmlns="http://www.w3.org/2000/svg" width="349.92" height="306.18" viewBox="0 0 349.92 306.18">
  <g id="Group_1" data-name="Group 1" transform="translate(-334.6 -258.326)">
    <path id="Icon_awesome-heart" data-name="Icon awesome-heart" d="M315.955,23.183C278.5-8.733,222.8-2.992,188.428,32.478L174.964,46.351,161.5,32.478C127.193-2.992,71.425-8.733,33.974,23.183-8.945,59.815-11.2,125.56,27.208,165.267L159.45,301.815a21.426,21.426,0,0,0,30.959,0L322.652,165.267c38.477-39.707,36.221-105.452-6.7-142.084Z" transform="translate(334.601 256.078)" fill="#4d6475"/>
    <path id="Icon_awesome-home" data-name="Icon awesome-home" d="M106.9,46.561l-70.295,57.9v62.487a6.1,6.1,0,0,0,6.1,6.1l42.725-.111a6.1,6.1,0,0,0,6.07-6.1V130.342a6.1,6.1,0,0,1,6.1-6.1H122a6.1,6.1,0,0,1,6.1,6.1v36.465a6.1,6.1,0,0,0,6.1,6.119l42.71.118a6.1,6.1,0,0,0,6.1-6.1V104.415l-70.28-57.854A4.648,4.648,0,0,0,106.9,46.561ZM217.939,85.912,186.065,59.639V6.829a4.575,4.575,0,0,0-4.575-4.575H160.139a4.575,4.575,0,0,0-4.575,4.575V34.513L121.428,6.428a18.3,18.3,0,0,0-23.258,0L1.659,85.912a4.575,4.575,0,0,0-.61,6.444l9.722,11.819a4.575,4.575,0,0,0,6.447.621L106.9,30.929a4.648,4.648,0,0,1,5.833,0L202.422,104.8a4.575,4.575,0,0,0,6.443-.61l9.722-11.819a4.575,4.575,0,0,0-.648-6.455Z" transform="translate(399.747 312.21)" fill="#fff"/>
  </g>
</svg>
